# xmcd
#
# Track frame offsets: 
#        150
#        17374
#        30180
#        42581
#        53148
#        64326
#        81540
#        107096
#        118650
#        144641
#        158920
#        169789
#        183774
#        201493
#        215052
#        229533
#        243115
#        257839
#        273042
#        290505
#        309920
#        325763
#        340570
#
# Disc length: 4760 seconds
#
# Revision: 0
# Processed by: cddbd v1.5.2PL0 Copyright (c) Steve Scherf et al.
# Submitted via: ExactAudioCopy v0.99pb5
#
DISCID=42129617
DTITLE=Juke Jumpers - Amazing Records!
DYEAR=2003
DGENRE=Blues
TTITLE0=Cadillac Boogie
TTITLE1=My Little Jewel
TTITLE2=What Goes On Behind Your Back
TTITLE3=Wiggle Your Hips
TTITLE4=Cuttin' Cane
TTITLE5=Horn Street Bounce
TTITLE6=You're Humbuggin' Me/I'm A Little Mixed Up
TTITLE7=Sunglasses After Dark
TTITLE8=You Don't Love Me
TTITLE9=Me and the Devil
TTITLE10=The Jump
TTITLE11=C'mon Let's Boogie
TTITLE12=Necks and Feet
TTITLE13=Tag Along
TTITLE14=What Kind of Fool (Do You Think I Am?)
TTITLE15=I Tried
TTITLE16=Booger Red
TTITLE17=The Knockout
TTITLE18=You Did Me Wrong
TTITLE19=Let's Get Loose
TTITLE20=Mama Didn't Raise No Fool
TTITLE21=T-Bpne Shuffle
TTITLE22=Bluebird Boogie
EXTD=
EXTT0=
EXTT1=
EXTT2=
EXTT3=
EXTT4=
EXTT5=
EXTT6=
EXTT7=
EXTT8=
EXTT9=
EXTT10=
EXTT11=
EXTT12=
EXTT13=
EXTT14=
EXTT15=
EXTT16=
EXTT17=
EXTT18=
EXTT19=
EXTT20=
EXTT21=
EXTT22=
PLAYORDER=
